<svg xmlns="http://www.w3.org/2000/svg" viewBox="0 0 100 100" width="100" height="100">
  <defs>
    <linearGradient id="famigliaGrad" x1="0%" y1="0%" x2="100%" y2="100%">
      <stop offset="0%" stop-color="#10b981"/>
      <stop offset="100%" stop-color="#059669"/>
    </linearGradient>
  </defs>
  <circle cx="50" cy="50" r="48" fill="url(#famigliaGrad)"/>
  <!-- House Roof -->
  <path d="M50 22 L22 46 L27 46 L27 76 L73 76 L73 46 L78 46 Z" fill="#ffffff"/>
  <!-- Door -->
  <path d="M43 76 L43 56 C43 53 45 51 48 51 L52 51 C55 51 57 53 57 56 L57 76 Z" fill="#10b981"/>
  <!-- Heart above chimney/roof -->
  <path d="M50 44 C50 40 45 37 42 40 C39 37 34 40 34 44 C34 50 42 55 42 55 C42 55 50 50 50 44 Z" fill="#f43f5e" transform="translate(16,-8) scale(0.7)"/>
  <!-- Window -->
  <rect x="57" y="38" width="8" height="8" rx="2" fill="#e0e7ff"/>
</svg>
