<svg xmlns="http://www.w3.org/2000/svg" viewBox="0 0 512 512" width="512" height="512">
  <defs>
    <linearGradient id="bgGrad512" x1="0%" y1="0%" x2="100%" y2="100%">
      <stop offset="0%" stop-color="#3b82f6"/>
      <stop offset="50%" stop-color="#6366f1"/>
      <stop offset="100%" stop-color="#ec4899"/>
    </linearGradient>
    <filter id="shadow512" x="-10%" y="-10%" width="120%" height="120%">
      <feDropShadow dx="0" dy="16" stdDeviation="20" flood-opacity="0.25"/>
    </filter>
  </defs>
  <rect width="512" height="512" rx="110" fill="url(#bgGrad512)"/>
  <!-- Note Sheet -->
  <g filter="url(#shadow512)">
    <rect x="96" y="86" width="320" height="340" rx="36" fill="#ffffff"/>
    <path d="M320 86 L416 182 L342 182 C330 182 320 172 320 160 Z" fill="#e2e8f0"/>
  </g>
  <!-- Pin -->
  <circle cx="256" cy="122" r="16" fill="#ef4444"/>
  <!-- Note Lines -->
  <rect x="140" y="190" width="150" height="18" rx="9" fill="#3b82f6"/>
  <rect x="140" y="232" width="232" height="15" rx="7.5" fill="#cbd5e1"/>
  <rect x="140" y="270" width="200" height="15" rx="7.5" fill="#cbd5e1"/>
  <rect x="140" y="308" width="216" height="15" rx="7.5" fill="#cbd5e1"/>
  <!-- Heart Accent -->
  <path d="M360 330 C360 316 344 306 331 319 C318 306 302 316 302 330 C302 352 331 371 331 371 C331 371 360 352 360 330 Z" fill="#ec4899"/>
  <!-- Checkmark -->
  <circle cx="172" cy="358" r="26" fill="#10b981"/>
  <path d="M159 358 L168 367 L185 350" stroke="#ffffff" stroke-width="6.5" stroke-linecap="round" stroke-linejoin="round" fill="none"/>
</svg>
